<?xml version="1.0" encoding="UTF-8" standalone="no"?>
<!-- Created with Inkscape (http://www.inkscape.org/) -->

<svg
   width="428.6926mm"
   height="401.33228mm"
   viewBox="0 0 428.6926 401.33228"
   version="1.1"
   id="svg1"
   xml:space="preserve"
   sodipodi:docname="trueform3.svg"
   inkscape:version="1.4.2 (ebf0e940, 2025-05-08)"
   xmlns:inkscape="http://www.inkscape.org/namespaces/inkscape"
   xmlns:sodipodi="http://sodipodi.sourceforge.net/DTD/sodipodi-0.dtd"
   xmlns="http://www.w3.org/2000/svg"
   xmlns:svg="http://www.w3.org/2000/svg"><sodipodi:namedview
     id="namedview1"
     pagecolor="#ffffff"
     bordercolor="#000000"
     borderopacity="0.25"
     inkscape:showpageshadow="2"
     inkscape:pageopacity="0.0"
     inkscape:pagecheckerboard="0"
     inkscape:deskcolor="#d1d1d1"
     inkscape:document-units="mm"
     inkscape:zoom="0.25373318"
     inkscape:cx="979.37525"
     inkscape:cy="1101.5508"
     inkscape:window-width="1528"
     inkscape:window-height="966"
     inkscape:window-x="60"
     inkscape:window-y="38"
     inkscape:window-maximized="0"
     inkscape:current-layer="g1" /><defs
     id="defs1" /><g
     inkscape:label="Layer 1"
     inkscape:groupmode="layer"
     id="layer1"
     transform="translate(253.19043,224.81615)"><g
       id="g1"
       transform="matrix(0.71959037,0,0,0.71959037,2.7074938,-106.08533)"><path
         d="m -19.838092,104.84804 c -11.48,6.69998 -21.17,12.67996 -21.29,13.39996 -0.48,1.44 41.87000031,25.83997 44.2600004,25.35997 2.51,-0.36 44.0199996,-23.92997 44.1399996,-24.99997 0,-0.96 -43.5399996,-26.079952 -44.9799997,-25.95995 -0.6,0 -10.5199999,5.619994 -22.1300003,12.19999"
         class="st2"
         id="path3-8" /><path
         d="m -114.8455,303.00544 0.36,26.44 55.030008,31.7 c 30.26,17.35 55.3800008,31.58 55.8600008,31.58 0.6,0 0.84,-11.72 0.72,-25.96 l -0.36,-25.96 -49.6400008,-28.47 c -27.28,-15.79 -52.520008,-30.26 -55.990008,-32.18 l -6.22,-3.71 z"
         class="st1"
         id="path9" /><path
         d="m 67.021082,306.9294 c -28.71,16.63 -53.589999,31.1 -55.389999,32.3 l -3.2299997,2.03 v 25.72 c 0,14.12 0.24,25.72 0.6,25.72 0.36,0 25.7199987,-14.36 56.2199987,-31.94 l 55.629988,-32.06 v -25.96 c 0,-14.36 -0.36,-26.08 -0.84,-25.96 -0.6,0 -24.399988,13.64 -52.989988,30.15"
         class="st0"
         id="path14" /><path
         d="m -115.00432,242.37485 0.36,26.44 55.03002,31.7 c 30.26,17.35 55.3800008,31.58 55.8599979,31.58 0.5999995,0 0.8399995,-11.72 0.7199995,-25.96 l -0.3599995,-25.96 -49.6399979,-28.47 c -27.28,-15.79 -52.52002,-30.26 -55.99002,-32.18 l -6.22,-3.71 z"
         class="st1"
         id="path9-3"
         style="fill:#3793d3" /><path
         d="m 66.862271,246.29881 c -28.71,16.63 -53.59,31.1 -55.39,32.3 l -3.2299993,2.03 v 25.72 c 0,14.12 0.24,25.72 0.6000001,25.72 0.36,0 25.7199992,-14.36 56.2199992,-31.94 l 55.629989,-32.06 v -25.96 c 0,-14.36 -0.36,-26.08 -0.84,-25.96 -0.6,0 -24.399989,13.64 -52.989989,30.15"
         class="st0"
         id="path14-6"
         style="fill:#53bcea" /><path
         d="m -56.294395,60.671445 c -29.029156,15.79 -52.381225,29.19 -51.758645,29.67 2.01547,2.030003 45.195165,24.999965 46.704132,24.999965 1.762221,0 53.7741108,-27.989965 57.4357311,-30.859965 1.8888476,-1.67 2.1421008,-4.55 2.1421008,-27.39 0,-14 -0.3798799,-25.479998 -0.8863865,-25.359998 -0.6225811,-0.01 -24.7344034,13.029998 -53.6369324,28.939998"
         class="st0"
         id="path4-7"
         style="fill:#53bcea;stroke-width:1.02724" /><path
         d="m 9.0563703,56.826073 v 26.2 L 37.329841,98.816076 c 15.679957,8.729974 29.016695,15.789964 29.88379,15.789964 1.362577,0 40.753429,-21.28997 44.820519,-24.279967 1.61031,-1.2 -5.05806,-5.38 -42.105688,-25.96 C 45.722076,50.846073 22.135043,37.806074 17.448605,35.296074 L 9.0563703,30.626075 Z"
         class="st1"
         id="path5-3"
         style="fill:#3793d3;stroke-width:1.016" /><path
         d="m -175.67703,-65.288097 c -29.02915,15.79 -52.38122,29.19 -51.75864,29.67 2.01547,2.030002 45.19516,24.999962 46.70413,24.999962 1.76222,0 53.77411,-27.989962 57.43573,-30.859962 1.88885,-1.67 2.1421,-4.55 2.1421,-27.39 0,-14 -0.37988,-25.479998 -0.88638,-25.359998 -0.62258,-0.01 -24.73441,13.029998 -53.63694,28.939998"
         class="st0"
         id="path4-7-5"
         style="fill:#53bcea;stroke-width:1.02724" /><path
         d="m -110.32626,-69.133469 v 26.2 l 28.27348,15.790004 c 15.679957,8.72997 29.016696,15.78996 29.883786,15.78996 1.36258,0 40.75343,-21.28997 44.8205204,-24.279964 1.6103102,-1.2 -5.0580604,-5.38 -42.1056804,-25.96 -24.206391,-13.52 -47.793428,-26.559999 -52.479876,-29.069999 l -8.39223,-4.669999 z"
         class="st1"
         id="path5-3-69"
         style="fill:#3793d3;stroke-width:1.016" /><path
         d="m -292.14408,-134.95242 c -29.02915,15.79 -52.38122,29.19 -51.75864,29.67 2.01547,2.03 45.19516,24.999953 46.70413,24.999953 1.76222,0 53.77412,-27.989953 57.43574,-30.859953 1.88885,-1.67 2.1421,-4.55 2.1421,-27.39 0,-14 -0.37988,-25.48 -0.88638,-25.36 -0.62258,-0.01 -24.73441,13.03 -53.63695,28.94"
         class="st0"
         id="path4-7-5-2"
         style="fill:#53bcea;stroke-width:1.02724" /><path
         d="m -226.7933,-138.79779 v 26.2 l 28.27348,15.789992 c 15.67995,8.72997 29.01669,15.789961 29.88378,15.789961 1.36258,0 40.75343,-21.289963 44.82052,-24.279953 1.61031,-1.2 -5.05806,-5.38 -42.10568,-25.96 -24.20639,-13.52 -47.79343,-26.56 -52.47987,-29.07 l -8.39223,-4.67 z"
         class="st1"
         id="path5-3-69-4"
         style="fill:#3793d3;stroke-width:1.016" /><path
         d="m -235.26136,53.995725 0.36,26.44 55.03,31.699965 c 30.26,17.34995 55.38,31.57991 55.86,31.57991 0.6,0 0.84,-11.71996 0.72,-25.95992 l -0.36,-25.959955 -49.64,-28.47 c -27.28,-15.79 -52.52,-30.26 -55.99,-32.18 l -6.22,-3.71 z"
         class="st1"
         id="path9-6"
         style="fill:#3793d3" /><path
         d="m -115.12146,121.24469 0.36,26.44 55.030023,31.7 c 30.26,17.35 55.3800008,31.58 55.8600009,31.58 0.5999998,0 0.8399998,-11.72 0.7199998,-25.96 l -0.3599998,-25.96 -49.6400009,-28.47 c -27.28,-15.78998 -52.520023,-30.25994 -55.990023,-32.179936 l -6.22,-3.71 z"
         class="st1"
         id="path9-9"
         style="fill:#3793d3" /><path
         d="m 66.009764,125.16865 c -28.71,16.63 -53.589999,31.1 -55.389998,32.3 l -3.2300004,2.03 v 25.72 c 0,14.12 0.24,25.72 0.6000001,25.72 0.36,0 25.7199983,-14.36 56.2199983,-31.94 l 55.629976,-32.06 v -25.96 c 0,-14.35997 -0.36,-26.079954 -0.84,-25.959954 -0.6,0 -24.399976,13.639984 -52.989976,30.149954"
         class="st0"
         id="path14-0"
         style="fill:#53bcea" /><path
         d="m -140.42684,-18.599344 c -11.48,6.7 -21.17,12.6800006 -21.29,13.4000007 -0.48,1.4400005 41.87,25.8399923 44.26,25.3599923 2.51,-0.36 44.020021,-23.9299918 44.140021,-24.9999922 0,-0.9600002 -43.540021,-26.0800008 -44.980021,-25.9600008 -0.6,0 -10.52,5.62 -22.13,12.2"
         class="st2"
         id="path3-8-5"
         style="fill:#adadad" /><path
         d="m -234.97483,-5.1441313 0.36,26.4400023 55.03,31.699997 c 30.26,17.35 55.38,31.58 55.86,31.58 0.6,0 0.84,-11.72 0.72,-25.96 l -0.36,-25.959997 -49.64,-28.4700008 c -27.28,-15.7900022 -52.52,-30.2600022 -55.99,-32.1800022 l -6.22,-3.71 z"
         class="st1"
         id="path9-9-4"
         style="fill:#3793d3" /><path
         d="M -56.785079,0.98593542 C -85.495079,17.615937 -110.37511,32.085937 -112.17511,33.285937 l -3.23,2.029999 v 25.719998 c 0,14.12 0.24,25.72 0.6,25.72 0.36,0 25.72003,-14.36 56.220031,-31.94 l 55.63,-32.059997 V -3.204065 c 0,-14.360001 -0.36,-26.080001 -0.8400001,-25.960001 -0.6000001,0 -24.4000009,13.64 -52.9899999,30.15000142"
         class="st0"
         id="path14-0-6"
         style="fill:#53bcea" /><path
         d="m 186.0911,58.365298 c -28.71,16.63 -53.59,31.099999 -55.39,32.299999 l -3.23,2.03 v 25.719953 c 0,14.11996 0.24,25.71993 0.6,25.71993 0.36,0 25.72,-14.35996 56.22,-31.93991 l 55.63,-32.059973 V 54.175298 c 0,-14.36 -0.36001,-26.08 -0.84001,-25.96 -0.59999,0 -24.4,13.64 -52.99,30.15"
         class="st0"
         id="path14-5-3"
         style="fill:#53bcea" /><path
         d="m -355.3761,-13.582544 0.36,26.440075 55.03,31.700086 c 30.26,17.350048 55.38,31.580086 55.86,31.580086 0.6,0 0.84,-11.720032 0.72,-25.96007 l -0.36,-25.960072 -49.64,-28.4700782 c -27.28,-15.7900448 -52.52,-30.2600828 -55.99,-32.1800888 l -6.22,-3.71001 z"
         class="st1"
         id="path9-6-3"
         style="fill:#3793d3" /><path
         d="m -114.93572,181.88858 0.36,26.44 55.03001,31.7 c 30.259996,17.35 55.3799968,31.58 55.8599969,31.58 0.5999996,0 0.8399996,-11.72 0.7199996,-25.96 l -0.36,-25.96 -49.6400005,-28.47 c -27.279996,-15.79 -52.520006,-30.26 -55.990006,-32.18 l -6.22,-3.71 z"
         class="st1"
         id="path9-2"
         style="fill:#3793d3" /><path
         d="m 66.195488,185.81254 c -28.71,16.63 -53.59,31.1 -55.39,32.3 l -3.2299994,2.03 v 25.72 c 0,14.12 0.2400001,25.72 0.6000001,25.72 0.3600001,0 25.7199993,-14.36 56.2199993,-31.94 l 55.629992,-32.06 v -25.96 c 0,-14.36 -0.36,-26.08 -0.84,-25.96 -0.6,0 -24.399992,13.64 -52.989992,30.15"
         class="st0"
         id="path14-4"
         style="fill:#53bcea" /><path
         d="m -257.86515,-86.644052 c -11.48,6.700018 -21.17,12.680034 -21.29,13.400036 -0.48,1.440004 41.87,25.84006 44.26,25.360058 2.51,-0.36 44.02,-23.930054 44.14,-25.000058 0,-0.960002 -43.54,-26.08007 -44.98,-25.96007 -0.6,0 -10.52,5.620016 -22.13,12.200034"
         class="st2"
         id="path3-8-9"
         style="fill:#adadad" /><path
         d="m -355.35462,-74.65953 0.36,26.440067 55.03001,31.7 c 30.26,17.35000172 55.38,31.580005 55.86,31.580005 0.59999,0 0.83999,-11.720003 0.71999,-25.960005 l -0.35999,-25.96 -49.64,-28.470041 c -27.28,-15.790044 -52.52001,-30.260084 -55.99001,-32.180088 l -6.22,-3.710008 z"
         class="st1"
         id="path9-9-8"
         style="fill:#3793d3" /><path
         d="m 101.18676,-20.759153 c -11.480028,6.7 -21.170029,12.6800003 -21.290029,13.4000004 -0.48,1.4400002 41.870029,25.8399976 44.260029,25.3599976 2.51,-0.36 44.02,-23.9299974 44.14,-24.9999975 0,-0.9600002 -43.54,-26.0800005 -44.98,-25.9600005 -0.6,0 -10.52,5.62 -22.13,12.2"
         class="st2"
         id="path3-8-3"
         style="fill:#adadad" /><path
         d="m 69.374873,-66.406558 c -27.50999,15.790044 -49.64,29.190062 -49.05,29.670062 1.91,2.029997 42.83001,24.999997 44.26,24.999997 1.67001,0 50.960007,-27.989997 54.430007,-30.859997 1.79,-1.67 2.03,-4.55001 2.03,-27.390072 0,-14.000038 -0.36,-25.480068 -0.84,-25.360068 -0.59,-0.01 -23.44001,13.030036 -50.830007,28.940078"
         class="st0"
         id="path4-7-8"
         style="fill:#53bcea" /><path
         d="m 132.57044,-70.98731 v 26.20007 l 27.39,15.789997 c 15.19,8.73 28.11,15.79 28.95,15.79 1.32,0 39.48,-21.29 43.42,-24.279997 1.56,-1.2 -4.9,-5.38 -40.79,-25.96005 -23.45,-13.520036 -46.3,-26.560072 -50.84,-29.070078 l -8.13,-4.670014 z"
         class="st1"
         id="path5-3-6"
         style="fill:#3793d3" /><path
         d="m 8.8448728,-5.8331944 0.36,26.4400054 55.0300102,31.699997 c 30.259991,17.35 55.379997,31.58 55.860007,31.58 0.59999,0 0.83999,-11.72 0.71999,-25.96 l -0.36,-25.959997 L 70.814873,3.4968101 c -27.27999,-15.7900051 -52.52,-30.2600051 -55.99,-32.1800051 l -6.2200002,-3.71 z"
         class="st1"
         id="path9-9-1"
         style="fill:#3793d3" /><path
         d="m 186.29923,-2.6446129 c -28.71,16.6300019 -53.59,31.1000019 -55.39,32.3000019 l -3.23,2.029999 v 25.719998 c 0,14.12 0.24,25.72 0.6,25.72 0.36,0 25.72,-14.36 56.22,-31.94 l 55.63,-32.059997 V -6.8346135 c 0,-14.3600035 -0.36,-26.0800035 -0.84,-25.9600035 -0.6,0 -24.4,13.64 -52.99,30.1500041"
         class="st0"
         id="path14-0-9"
         style="fill:#53bcea" /></g></g><style
     id="style1">.st0{fill:#53bcea}.st1{fill:#3793d3}.st2{fill:#adadad}</style></svg>
